<?xml version="1.0" encoding="UTF-8"?>
<svg xmlns="http://www.w3.org/2000/svg" width="1440" height="810" viewBox="0 0 1440 810" role="img" aria-label="Utility template preview">
  <defs>
    <linearGradient id="bg-atlas" x1="0" y1="0" x2="1" y2="1">
      <stop offset="0" stop-color="#f4f8f7" />
      <stop offset="0.52" stop-color="#eef3f4" />
      <stop offset="1" stop-color="#c5d7d8" />
    </linearGradient>
    <linearGradient id="wash-atlas" x1="0" y1="0" x2="1" y2="1">
      <stop offset="0" stop-color="#2f6f73" stop-opacity="0.95" />
      <stop offset="0.55" stop-color="#8baeb1" stop-opacity="0.92" />
      <stop offset="1" stop-color="#2a5f65" stop-opacity="0.94" />
    </linearGradient>
    <filter id="shadow-atlas" x="-20%" y="-20%" width="140%" height="150%">
      <feDropShadow dx="0" dy="22" stdDeviation="22" flood-color="#225053" flood-opacity="0.2" />
    </filter>
    <filter id="lift-atlas" x="-20%" y="-20%" width="140%" height="140%">
      <feDropShadow dx="10" dy="14" stdDeviation="0" flood-color="#769052" flood-opacity="0.92" />
    </filter>
    <clipPath id="clip-main-atlas">
      <path d="M0 0 H430 V235 L394 280 H0 Z" />
    </clipPath>
    <clipPath id="clip-small-atlas">
      <path d="M0 0 H270 V122 L240 154 H0 Z" />
    </clipPath>
  </defs>

  <rect width="1440" height="810" fill="url(#bg-atlas)" />
  
  <g opacity="0.24">
    <circle cx="1180" cy="140" r="132" fill="#c1d4d5" />
    <circle cx="160" cy="650" r="118" fill="#d1dfe0" />
    <path d="M1030 704 C1120 610 1248 628 1346 520" fill="none" stroke="#c1d4d5" stroke-width="18" stroke-linecap="round" />
  </g>
  <rect x="60" y="48" width="1320" height="694" rx="34" fill="#ffffff" opacity="0.74" />
  <rect x="60" y="48" width="1320" height="694" rx="34" fill="none" stroke="#a1bec0" stroke-width="1.5" />

  
  <g>
    <rect x="100" y="78" width="1240" height="72" rx="20" fill="#ffffff" opacity="0.86" />
    <rect x="100" y="78" width="1240" height="72" rx="20" fill="none" stroke="#dae5e6" stroke-width="1.4" />
    <rect x="128" y="97" width="34" height="34" rx="8" fill="#2f6f73" />
    <rect x="136" y="105" width="18" height="18" rx="4" fill="#ffffff" opacity="0.9" />
    <text x="178" y="121" fill="#163235" font-size="22" font-weight="800" font-family="Inter, Arial, sans-serif">Utility</text>
    
    <rect x="1000" y="99" width="96" height="30" rx="15" fill="#dae5e6" stroke="#c9d3d4" stroke-width="1" />
    <text x="1048" y="119" text-anchor="middle" fill="#225053" font-size="13" font-weight="850" font-family="Inter, Arial, sans-serif">Style</text>
    
    <rect x="1110" y="99" width="94" height="30" rx="15" fill="#ffffff" stroke="#ebebeb" stroke-width="1" />
    <text x="1157" y="119" text-anchor="middle" fill="#53606a" font-size="13" font-weight="850" font-family="Inter, Arial, sans-serif">Blocks</text>
    <rect x="1218" y="94" width="92" height="40" rx="13" fill="#163235" />
    <text x="1244" y="120" fill="#ffffff" font-size="14" font-weight="800" font-family="Inter, Arial, sans-serif">Start</text>
  </g>
  
  <g>
    
    <rect x="112" y="190" width="154" height="34" rx="17" fill="#dae5e6" stroke="#c9d3d4" stroke-width="1" />
    <text x="189" y="212" text-anchor="middle" fill="#225053" font-size="13" font-weight="850" font-family="Inter, Arial, sans-serif">Preset style</text>
    <text x="112" y="279" fill="#163235" font-size="78" font-weight="900" letter-spacing="0" font-family="Inter, Arial, sans-serif">Utility</text>
    <text x="116" y="326" fill="#225053" font-size="26" font-weight="750" letter-spacing="0" font-family="Inter, Arial, sans-serif">Compact. Structured. Data-ready.</text>
    <text x="116" y="380" fill="#475569" font-size="24" font-weight="600" font-family="Inter, Arial, sans-serif">Dense stats, service grids, and repeatable</text><text x="116" y="413" fill="#475569" font-size="24" font-weight="600" font-family="Inter, Arial, sans-serif">process sections.</text>
    <rect x="116" y="440" width="148" height="50" rx="15" fill="#2f6f73" />
    <text x="148" y="471" fill="#ffffff" font-size="16" font-weight="850" font-family="Inter, Arial, sans-serif">Preview</text>
    <rect x="282" y="440" width="156" height="50" rx="15" fill="#ffffff" stroke="#dae5e6" stroke-width="1.6" />
    <text x="316" y="471" fill="#163235" font-size="16" font-weight="800" font-family="Inter, Arial, sans-serif">Sections</text>
    <g transform="translate(116 550)">
      
    <g transform="translate(0 0)">
      <text x="0" y="0" fill="#163235" font-size="40" font-weight="900" font-family="Inter, Arial, sans-serif">16</text>
      <text x="0" y="31" fill="#617476" font-size="15" font-weight="800" font-family="Inter, Arial, sans-serif">blocks</text>
    </g>
      
    <g transform="translate(142 0)">
      <text x="0" y="0" fill="#163235" font-size="40" font-weight="900" font-family="Inter, Arial, sans-serif">4</text>
      <text x="0" y="31" fill="#617476" font-size="15" font-weight="800" font-family="Inter, Arial, sans-serif">flows</text>
    </g>
      
    <g transform="translate(284 0)">
      <text x="0" y="0" fill="#163235" font-size="40" font-weight="900" font-family="Inter, Arial, sans-serif">1</text>
      <text x="0" y="31" fill="#617476" font-size="15" font-weight="800" font-family="Inter, Arial, sans-serif">preset</text>
    </g>
    </g>
  </g>
  
  <g>
    <rect x="668" y="180" width="642" height="476" rx="30" fill="#eaf1f1" opacity="0.82" />
    <rect x="692" y="205" width="594" height="424" rx="24" fill="#ffffff" opacity="0.72" />
    <g transform="translate(724 232)">
      
      <g transform="translate(0 0)">
        <rect width="430" height="280" rx="14" fill="#ffffff" stroke="#235255" stroke-width="1.5" />
        <rect x="20" y="20" width="390" height="50" rx="10" fill="#eef3f4" />
        <text x="38" y="52" fill="#163235" font-size="20" font-weight="850" font-family="Inter, Arial, sans-serif">Utility</text>
        
      <g>
        <rect x="24" y="94" width="119.33333333333333" height="75" rx="12" fill="#e2ebeb" />
        <rect x="40" y="112" width="50.12" height="11" rx="5.5" fill="#26595c" opacity="0.46" />
        <rect x="40" y="140" width="81.14666666666668" height="9" rx="4.5" fill="#26595c" opacity="0.18" />
      </g>
      <g>
        <rect x="155.33333333333331" y="94" width="119.33333333333333" height="75" rx="12" fill="#e2ebeb" />
        <rect x="171.33333333333331" y="112" width="50.12" height="11" rx="5.5" fill="#26595c" opacity="0.46" />
        <rect x="171.33333333333331" y="140" width="81.14666666666668" height="9" rx="4.5" fill="#26595c" opacity="0.18" />
      </g>
      <g>
        <rect x="286.66666666666663" y="94" width="119.33333333333333" height="75" rx="12" fill="#e2ebeb" />
        <rect x="302.66666666666663" y="112" width="50.12" height="11" rx="5.5" fill="#26595c" opacity="0.46" />
        <rect x="302.66666666666663" y="140" width="81.14666666666668" height="9" rx="4.5" fill="#26595c" opacity="0.18" />
      </g>
      <g>
        <rect x="24" y="181" width="119.33333333333333" height="75" rx="12" fill="#e2ebeb" />
        <rect x="40" y="199" width="50.12" height="11" rx="5.5" fill="#26595c" opacity="0.46" />
        <rect x="40" y="227" width="81.14666666666668" height="9" rx="4.5" fill="#26595c" opacity="0.18" />
      </g>
      <g>
        <rect x="155.33333333333331" y="181" width="119.33333333333333" height="75" rx="12" fill="#e2ebeb" />
        <rect x="171.33333333333331" y="199" width="50.12" height="11" rx="5.5" fill="#26595c" opacity="0.46" />
        <rect x="171.33333333333331" y="227" width="81.14666666666668" height="9" rx="4.5" fill="#26595c" opacity="0.18" />
      </g>
      <g>
        <rect x="286.66666666666663" y="181" width="119.33333333333333" height="75" rx="12" fill="#e2ebeb" />
        <rect x="302.66666666666663" y="199" width="50.12" height="11" rx="5.5" fill="#26595c" opacity="0.46" />
        <rect x="302.66666666666663" y="227" width="81.14666666666668" height="9" rx="4.5" fill="#26595c" opacity="0.18" />
      </g>
      </g>
    </g>
    <g transform="translate(1030 424)">
      
      <g transform="translate(0 0)">
        <rect width="270" height="154" rx="14" fill="#ffffff" stroke="#235255" stroke-width="1.5" />
        <rect x="20" y="20" width="230" height="50" rx="10" fill="#eef3f4" />
        <text x="38" y="52" fill="#163235" font-size="20" font-weight="850" font-family="Inter, Arial, sans-serif">Detail</text>
        
      <g>
        <rect x="24" y="94" width="66" height="12" rx="12" fill="#e2ebeb" />
        <rect x="40" y="112" width="27.72" height="11" rx="5.5" fill="#26595c" opacity="0.46" />
        <rect x="40" y="140" width="44.88" height="9" rx="4.5" fill="#26595c" opacity="0.18" />
      </g>
      <g>
        <rect x="102" y="94" width="66" height="12" rx="12" fill="#e2ebeb" />
        <rect x="118" y="112" width="27.72" height="11" rx="5.5" fill="#26595c" opacity="0.46" />
        <rect x="118" y="140" width="44.88" height="9" rx="4.5" fill="#26595c" opacity="0.18" />
      </g>
      <g>
        <rect x="180" y="94" width="66" height="12" rx="12" fill="#e2ebeb" />
        <rect x="196" y="112" width="27.72" height="11" rx="5.5" fill="#26595c" opacity="0.46" />
        <rect x="196" y="140" width="44.88" height="9" rx="4.5" fill="#26595c" opacity="0.18" />
      </g>
      <g>
        <rect x="24" y="118" width="66" height="12" rx="12" fill="#e2ebeb" />
        <rect x="40" y="136" width="27.72" height="11" rx="5.5" fill="#26595c" opacity="0.46" />
        <rect x="40" y="164" width="44.88" height="9" rx="4.5" fill="#26595c" opacity="0.18" />
      </g>
      <g>
        <rect x="102" y="118" width="66" height="12" rx="12" fill="#e2ebeb" />
        <rect x="118" y="136" width="27.72" height="11" rx="5.5" fill="#26595c" opacity="0.46" />
        <rect x="118" y="164" width="44.88" height="9" rx="4.5" fill="#26595c" opacity="0.18" />
      </g>
      <g>
        <rect x="180" y="118" width="66" height="12" rx="12" fill="#e2ebeb" />
        <rect x="196" y="136" width="27.72" height="11" rx="5.5" fill="#26595c" opacity="0.46" />
        <rect x="196" y="164" width="44.88" height="9" rx="4.5" fill="#26595c" opacity="0.18" />
      </g>
      </g>
    </g>
    <g transform="translate(690 502)">
      
  <g>
    <rect x="0" y="0" width="330" height="112" rx="18" fill="#ffffff" stroke="#dae5e6" stroke-width="1.5" />
    <rect x="20" y="20" width="58" height="58" rx="14" fill="#2f6f73" opacity="0.18" />
    <rect x="98" y="24" width="174" height="12" rx="6" fill="#245457" opacity="0.52" />
    <rect x="98" y="52" width="218" height="10" rx="5" fill="#245457" opacity="0.18" />
    <rect x="98" y="74" width="150" height="10" rx="5" fill="#245457" opacity="0.14" />
    <rect x="20" y="132" width="214" height="52" rx="16" fill="#2f6f73" opacity="0.14" />
    <rect x="254" y="132" width="116" height="52" rx="16" fill="#ffffff" stroke="#dae5e6" stroke-width="1.5" />
  </g>
    </g>
    <g transform="translate(1140 214)">
      <circle cx="0" cy="0" r="52" fill="#2f6f73" opacity="0.1" />
      <circle cx="0" cy="0" r="22" fill="#2f6f73" opacity="0.32" />
    </g>
  </g>
  
  <g>
    <rect x="100" y="678" width="1240" height="1.5" fill="#dae5e6" />
    
    <rect x="112" y="702" width="138" height="34" rx="17" fill="#ffffff" stroke="#ebebeb" stroke-width="1" />
    <text x="181" y="724" text-anchor="middle" fill="#53606a" font-size="13" font-weight="850" font-family="Inter, Arial, sans-serif">Responsive</text>
    
    <rect x="266" y="702" width="116" height="34" rx="17" fill="#ffffff" stroke="#ebebeb" stroke-width="1" />
    <text x="324" y="724" text-anchor="middle" fill="#53606a" font-size="13" font-weight="850" font-family="Inter, Arial, sans-serif">Cards</text>
    
    <rect x="398" y="702" width="132" height="34" rx="17" fill="#ffffff" stroke="#ebebeb" stroke-width="1" />
    <text x="464" y="724" text-anchor="middle" fill="#53606a" font-size="13" font-weight="850" font-family="Inter, Arial, sans-serif">Sections</text>
    <text x="1010" y="726" fill="#225053" font-size="18" font-weight="800" font-family="Inter, Arial, sans-serif">Drawn preset preview</text>
    <rect x="1236" y="705" width="74" height="24" rx="12" fill="#2f6f73" opacity="0.16" />
  </g>
</svg>