<?xml version="1.0" encoding="UTF-8"?>
<svg xmlns="http://www.w3.org/2000/svg" width="1440" height="810" viewBox="0 0 1440 810" role="img" aria-label="Bordered template preview">
  <defs>
    <linearGradient id="bg-builder" x1="0" y1="0" x2="1" y2="1">
      <stop offset="0" stop-color="#fff9eb" />
      <stop offset="0.52" stop-color="#fef7eb" />
      <stop offset="1" stop-color="#fce4bb" />
    </linearGradient>
    <linearGradient id="wash-builder" x1="0" y1="0" x2="1" y2="1">
      <stop offset="0" stop-color="#f59e0b" stop-opacity="0.95" />
      <stop offset="0.55" stop-color="#f9c976" stop-opacity="0.92" />
      <stop offset="1" stop-color="#cc8610" stop-opacity="0.94" />
    </linearGradient>
    <filter id="shadow-builder" x="-20%" y="-20%" width="140%" height="150%">
      <feDropShadow dx="0" dy="22" stdDeviation="22" flood-color="#b07208" flood-opacity="0.2" />
    </filter>
    <filter id="lift-builder" x="-20%" y="-20%" width="140%" height="140%">
      <feDropShadow dx="10" dy="14" stdDeviation="0" flood-color="#f7ae0f" flood-opacity="0.92" />
    </filter>
    <clipPath id="clip-main-builder">
      <path d="M0 0 H430 V235 L394 280 H0 Z" />
    </clipPath>
    <clipPath id="clip-small-builder">
      <path d="M0 0 H270 V122 L240 154 H0 Z" />
    </clipPath>
  </defs>

  <rect width="1440" height="810" fill="url(#bg-builder)" />
  
  <g opacity="0.24">
    <circle cx="1180" cy="140" r="132" fill="#fce2b6" />
    <circle cx="160" cy="650" r="118" fill="#fdeac9" />
    <path d="M1030 704 C1120 610 1248 628 1346 520" fill="none" stroke="#fce2b6" stroke-width="18" stroke-linecap="round" />
  </g>
  <rect x="60" y="48" width="1320" height="694" rx="34" fill="#ffffff" opacity="0.74" />
  <rect x="60" y="48" width="1320" height="694" rx="34" fill="none" stroke="#fbd391" stroke-width="1.5" />

  
  <g>
    <rect x="100" y="78" width="1240" height="72" rx="20" fill="#ffffff" opacity="0.86" />
    <rect x="100" y="78" width="1240" height="72" rx="20" fill="none" stroke="#fdeed3" stroke-width="1.4" />
    <rect x="128" y="97" width="34" height="34" rx="8" fill="#f59e0b" />
    <rect x="136" y="105" width="18" height="18" rx="4" fill="#ffffff" opacity="0.9" />
    <text x="178" y="121" fill="#332511" font-size="22" font-weight="800" font-family="Inter, Arial, sans-serif">Bordered</text>
    
    <rect x="1000" y="99" width="96" height="30" rx="15" fill="#fdeed3" stroke="#e9dbc2" stroke-width="1" />
    <text x="1048" y="119" text-anchor="middle" fill="#b07208" font-size="13" font-weight="850" font-family="Inter, Arial, sans-serif">Style</text>
    
    <rect x="1110" y="99" width="94" height="30" rx="15" fill="#ffffff" stroke="#ebebeb" stroke-width="1" />
    <text x="1157" y="119" text-anchor="middle" fill="#53606a" font-size="13" font-weight="850" font-family="Inter, Arial, sans-serif">Blocks</text>
    <rect x="1218" y="94" width="92" height="40" rx="13" fill="#332511" />
    <text x="1244" y="120" fill="#ffffff" font-size="14" font-weight="800" font-family="Inter, Arial, sans-serif">Start</text>
  </g>
  
  <g>
    
    <rect x="112" y="190" width="154" height="34" rx="17" fill="#fdeed3" stroke="#e9dbc2" stroke-width="1" />
    <text x="189" y="212" text-anchor="middle" fill="#b07208" font-size="13" font-weight="850" font-family="Inter, Arial, sans-serif">Preset style</text>
    <text x="112" y="279" fill="#332511" font-size="78" font-weight="900" letter-spacing="0" font-family="Inter, Arial, sans-serif">Bordered</text>
    <text x="116" y="326" fill="#b07208" font-size="26" font-weight="750" letter-spacing="0" font-family="Inter, Arial, sans-serif">Crisp. Practical. Service-ready.</text>
    <text x="116" y="380" fill="#475569" font-size="24" font-weight="600" font-family="Inter, Arial, sans-serif">Structured borders, estimate paths, stats, and</text><text x="116" y="413" fill="#475569" font-size="24" font-weight="600" font-family="Inter, Arial, sans-serif">proof blocks.</text>
    <rect x="116" y="440" width="148" height="50" rx="15" fill="#f59e0b" />
    <text x="148" y="471" fill="#ffffff" font-size="16" font-weight="850" font-family="Inter, Arial, sans-serif">Preview</text>
    <rect x="282" y="440" width="156" height="50" rx="15" fill="#ffffff" stroke="#fdeed3" stroke-width="1.6" />
    <text x="316" y="471" fill="#332511" font-size="16" font-weight="800" font-family="Inter, Arial, sans-serif">Sections</text>
    <g transform="translate(116 550)">
      
    <g transform="translate(0 0)">
      <text x="0" y="0" fill="#332511" font-size="40" font-weight="900" font-family="Inter, Arial, sans-serif">16</text>
      <text x="0" y="31" fill="#746b5d" font-size="15" font-weight="800" font-family="Inter, Arial, sans-serif">blocks</text>
    </g>
      
    <g transform="translate(142 0)">
      <text x="0" y="0" fill="#332511" font-size="40" font-weight="900" font-family="Inter, Arial, sans-serif">4</text>
      <text x="0" y="31" fill="#746b5d" font-size="15" font-weight="800" font-family="Inter, Arial, sans-serif">flows</text>
    </g>
      
    <g transform="translate(284 0)">
      <text x="0" y="0" fill="#332511" font-size="40" font-weight="900" font-family="Inter, Arial, sans-serif">1</text>
      <text x="0" y="31" fill="#746b5d" font-size="15" font-weight="800" font-family="Inter, Arial, sans-serif">preset</text>
    </g>
    </g>
  </g>
  
  <g>
    <rect x="668" y="180" width="642" height="476" rx="30" fill="#fef5e7" opacity="0.82" />
    <rect x="692" y="205" width="594" height="424" rx="24" fill="#ffffff" opacity="0.72" />
    <g transform="translate(724 232)">
      
      <g transform="translate(0 0)">
        <rect width="430" height="280" rx="10" fill="#ffffff" stroke="#332511" stroke-width="2" />
        <line x1="0" y1="72" x2="430" y2="72" stroke="#332511" stroke-width="2" />
        <line x1="258" y1="72" x2="258" y2="280" stroke="#332511" stroke-width="2" />
        <text x="24" y="46" fill="#332511" font-size="24" font-weight="900" font-family="Inter, Arial, sans-serif">Bordered</text>
        <rect x="24" y="104" width="206" height="148" rx="8" fill="#fdefd8" />
        
      <g>
        <rect x="279.5" y="104" width="107.5" height="41.333333333333336" rx="12" fill="#fef1dd" />
        <rect x="295.5" y="122" width="45.15" height="11" rx="5.5" fill="#c47e09" opacity="0.46" />
        <rect x="295.5" y="150" width="73.10000000000001" height="9" rx="4.5" fill="#c47e09" opacity="0.18" />
      </g>
      <g>
        <rect x="279.5" y="157.33333333333334" width="107.5" height="41.333333333333336" rx="12" fill="#fef1dd" />
        <rect x="295.5" y="175.33333333333334" width="45.15" height="11" rx="5.5" fill="#c47e09" opacity="0.46" />
        <rect x="295.5" y="203.33333333333334" width="73.10000000000001" height="9" rx="4.5" fill="#c47e09" opacity="0.18" />
      </g>
      <g>
        <rect x="279.5" y="210.66666666666669" width="107.5" height="41.333333333333336" rx="12" fill="#fef1dd" />
        <rect x="295.5" y="228.66666666666669" width="45.15" height="11" rx="5.5" fill="#c47e09" opacity="0.46" />
        <rect x="295.5" y="256.6666666666667" width="73.10000000000001" height="9" rx="4.5" fill="#c47e09" opacity="0.18" />
      </g>
      </g>
    </g>
    <g transform="translate(1030 424)">
      
      <g transform="translate(0 0)">
        <rect width="270" height="154" rx="10" fill="#ffffff" stroke="#332511" stroke-width="2" />
        <line x1="0" y1="72" x2="270" y2="72" stroke="#332511" stroke-width="2" />
        <line x1="162" y1="72" x2="162" y2="154" stroke="#332511" stroke-width="2" />
        <text x="24" y="46" fill="#332511" font-size="24" font-weight="900" font-family="Inter, Arial, sans-serif">Detail</text>
        <rect x="24" y="104" width="130" height="22" rx="8" fill="#fdefd8" />
        
      <g>
        <rect x="175.5" y="104" width="67.5" height="-0.6666666666666666" rx="12" fill="#fef1dd" />
        <rect x="191.5" y="122" width="28.349999999999998" height="11" rx="5.5" fill="#c47e09" opacity="0.46" />
        <rect x="191.5" y="150" width="45.900000000000006" height="9" rx="4.5" fill="#c47e09" opacity="0.18" />
      </g>
      <g>
        <rect x="175.5" y="115.33333333333333" width="67.5" height="-0.6666666666666666" rx="12" fill="#fef1dd" />
        <rect x="191.5" y="133.33333333333331" width="28.349999999999998" height="11" rx="5.5" fill="#c47e09" opacity="0.46" />
        <rect x="191.5" y="161.33333333333331" width="45.900000000000006" height="9" rx="4.5" fill="#c47e09" opacity="0.18" />
      </g>
      <g>
        <rect x="175.5" y="126.66666666666667" width="67.5" height="-0.6666666666666666" rx="12" fill="#fef1dd" />
        <rect x="191.5" y="144.66666666666669" width="28.349999999999998" height="11" rx="5.5" fill="#c47e09" opacity="0.46" />
        <rect x="191.5" y="172.66666666666669" width="45.900000000000006" height="9" rx="4.5" fill="#c47e09" opacity="0.18" />
      </g>
      </g>
    </g>
    <g transform="translate(690 502)">
      
  <g>
    <rect x="0" y="0" width="330" height="112" rx="18" fill="#ffffff" stroke="#fdeed3" stroke-width="1.5" />
    <rect x="20" y="20" width="58" height="58" rx="14" fill="#f59e0b" opacity="0.18" />
    <rect x="98" y="24" width="174" height="12" rx="6" fill="#ba7808" opacity="0.52" />
    <rect x="98" y="52" width="218" height="10" rx="5" fill="#ba7808" opacity="0.18" />
    <rect x="98" y="74" width="150" height="10" rx="5" fill="#ba7808" opacity="0.14" />
    <rect x="20" y="132" width="214" height="52" rx="16" fill="#f59e0b" opacity="0.14" />
    <rect x="254" y="132" width="116" height="52" rx="16" fill="#ffffff" stroke="#fdeed3" stroke-width="1.5" />
  </g>
    </g>
    <g transform="translate(1140 214)">
      <circle cx="0" cy="0" r="52" fill="#f59e0b" opacity="0.1" />
      <circle cx="0" cy="0" r="22" fill="#f59e0b" opacity="0.32" />
    </g>
  </g>
  
  <g>
    <rect x="100" y="678" width="1240" height="1.5" fill="#fdeed3" />
    
    <rect x="112" y="702" width="138" height="34" rx="17" fill="#ffffff" stroke="#ebebeb" stroke-width="1" />
    <text x="181" y="724" text-anchor="middle" fill="#53606a" font-size="13" font-weight="850" font-family="Inter, Arial, sans-serif">Responsive</text>
    
    <rect x="266" y="702" width="116" height="34" rx="17" fill="#ffffff" stroke="#ebebeb" stroke-width="1" />
    <text x="324" y="724" text-anchor="middle" fill="#53606a" font-size="13" font-weight="850" font-family="Inter, Arial, sans-serif">Cards</text>
    
    <rect x="398" y="702" width="132" height="34" rx="17" fill="#ffffff" stroke="#ebebeb" stroke-width="1" />
    <text x="464" y="724" text-anchor="middle" fill="#53606a" font-size="13" font-weight="850" font-family="Inter, Arial, sans-serif">Sections</text>
    <text x="1010" y="726" fill="#b07208" font-size="18" font-weight="800" font-family="Inter, Arial, sans-serif">Drawn preset preview</text>
    <rect x="1236" y="705" width="74" height="24" rx="12" fill="#f59e0b" opacity="0.16" />
  </g>
</svg>