<?xml version="1.0" encoding="UTF-8"?>
<svg xmlns="http://www.w3.org/2000/svg" width="1440" height="810" viewBox="0 0 1440 810" role="img" aria-label="Gradient Wash template preview">
  <defs>
    <linearGradient id="bg-commerce" x1="0" y1="0" x2="1" y2="1">
      <stop offset="0" stop-color="#f3f7ff" />
      <stop offset="0.52" stop-color="#eef3fd" />
      <stop offset="1" stop-color="#c2d3f9" />
    </linearGradient>
    <linearGradient id="wash-commerce" x1="0" y1="0" x2="1" y2="1">
      <stop offset="0" stop-color="#2563eb" stop-opacity="0.95" />
      <stop offset="0.55" stop-color="#85a8f4" stop-opacity="0.92" />
      <stop offset="1" stop-color="#2156c8" stop-opacity="0.94" />
    </linearGradient>
    <filter id="shadow-commerce" x="-20%" y="-20%" width="140%" height="150%">
      <feDropShadow dx="0" dy="22" stdDeviation="22" flood-color="#1b47a9" flood-opacity="0.2" />
    </filter>
    <filter id="lift-commerce" x="-20%" y="-20%" width="140%" height="140%">
      <feDropShadow dx="10" dy="14" stdDeviation="0" flood-color="#7088a0" flood-opacity="0.92" />
    </filter>
    <clipPath id="clip-main-commerce">
      <path d="M0 0 H430 V235 L394 280 H0 Z" />
    </clipPath>
    <clipPath id="clip-small-commerce">
      <path d="M0 0 H270 V122 L240 154 H0 Z" />
    </clipPath>
  </defs>

  <rect width="1440" height="810" fill="url(#bg-commerce)" />
  
  <g opacity="0.24">
    <circle cx="1180" cy="140" r="132" fill="#bed0f9" />
    <circle cx="160" cy="650" r="118" fill="#cfddfb" />
    <path d="M1030 704 C1120 610 1248 628 1346 520" fill="none" stroke="#bed0f9" stroke-width="18" stroke-linecap="round" />
  </g>
  <rect x="60" y="48" width="1320" height="694" rx="34" fill="#ffffff" opacity="0.74" />
  <rect x="60" y="48" width="1320" height="694" rx="34" fill="none" stroke="#9db9f6" stroke-width="1.5" />

  
  <g>
    <rect x="100" y="78" width="1240" height="72" rx="20" fill="#ffffff" opacity="0.86" />
    <rect x="100" y="78" width="1240" height="72" rx="20" fill="none" stroke="#d8e3fb" stroke-width="1.4" />
    <rect x="128" y="97" width="34" height="34" rx="8" fill="#2563eb" />
    <rect x="136" y="105" width="18" height="18" rx="4" fill="#ffffff" opacity="0.9" />
    <text x="178" y="121" fill="#15264a" font-size="22" font-weight="800" font-family="Inter, Arial, sans-serif">Gradient Wash</text>
    
    <rect x="1000" y="99" width="96" height="30" rx="15" fill="#d8e3fb" stroke="#c7d1e7" stroke-width="1" />
    <text x="1048" y="119" text-anchor="middle" fill="#1b47a9" font-size="13" font-weight="850" font-family="Inter, Arial, sans-serif">Style</text>
    
    <rect x="1110" y="99" width="94" height="30" rx="15" fill="#ffffff" stroke="#ebebeb" stroke-width="1" />
    <text x="1157" y="119" text-anchor="middle" fill="#53606a" font-size="13" font-weight="850" font-family="Inter, Arial, sans-serif">Blocks</text>
    <rect x="1218" y="94" width="92" height="40" rx="13" fill="#15264a" />
    <text x="1244" y="120" fill="#ffffff" font-size="14" font-weight="800" font-family="Inter, Arial, sans-serif">Start</text>
  </g>
  
  <g>
    
    <rect x="112" y="190" width="154" height="34" rx="17" fill="#d8e3fb" stroke="#c7d1e7" stroke-width="1" />
    <text x="189" y="212" text-anchor="middle" fill="#1b47a9" font-size="13" font-weight="850" font-family="Inter, Arial, sans-serif">Preset style</text>
    <text x="112" y="279" fill="#15264a" font-size="78" font-weight="900" letter-spacing="0" font-family="Inter, Arial, sans-serif">Gradient Wash</text>
    <text x="116" y="326" fill="#1b47a9" font-size="26" font-weight="750" letter-spacing="0" font-family="Inter, Arial, sans-serif">Color-washed. Product-led. Conversion-ready.</text>
    <text x="116" y="380" fill="#475569" font-size="24" font-weight="600" font-family="Inter, Arial, sans-serif">Gradient offer cards, product sections, and</text><text x="116" y="413" fill="#475569" font-size="24" font-weight="600" font-family="Inter, Arial, sans-serif">feature blocks.</text>
    <rect x="116" y="440" width="148" height="50" rx="15" fill="#2563eb" />
    <text x="148" y="471" fill="#ffffff" font-size="16" font-weight="850" font-family="Inter, Arial, sans-serif">Preview</text>
    <rect x="282" y="440" width="156" height="50" rx="15" fill="#ffffff" stroke="#d8e3fb" stroke-width="1.6" />
    <text x="316" y="471" fill="#15264a" font-size="16" font-weight="800" font-family="Inter, Arial, sans-serif">Sections</text>
    <g transform="translate(116 550)">
      
    <g transform="translate(0 0)">
      <text x="0" y="0" fill="#15264a" font-size="40" font-weight="900" font-family="Inter, Arial, sans-serif">16</text>
      <text x="0" y="31" fill="#606b84" font-size="15" font-weight="800" font-family="Inter, Arial, sans-serif">blocks</text>
    </g>
      
    <g transform="translate(142 0)">
      <text x="0" y="0" fill="#15264a" font-size="40" font-weight="900" font-family="Inter, Arial, sans-serif">4</text>
      <text x="0" y="31" fill="#606b84" font-size="15" font-weight="800" font-family="Inter, Arial, sans-serif">flows</text>
    </g>
      
    <g transform="translate(284 0)">
      <text x="0" y="0" fill="#15264a" font-size="40" font-weight="900" font-family="Inter, Arial, sans-serif">1</text>
      <text x="0" y="31" fill="#606b84" font-size="15" font-weight="800" font-family="Inter, Arial, sans-serif">preset</text>
    </g>
    </g>
  </g>
  
  <g>
    <rect x="668" y="180" width="642" height="476" rx="30" fill="#e9effd" opacity="0.82" />
    <rect x="692" y="205" width="594" height="424" rx="24" fill="#ffffff" opacity="0.72" />
    <g transform="translate(724 232)">
      
      <g transform="translate(0 0)">
        <rect width="430" height="280" rx="22" fill="url(#wash-commerce)" />
        <rect x="24" y="24" width="382" height="232" rx="18" fill="#ffffff" opacity="0.18" />
        <text x="34" y="72" fill="#ffffff" font-size="32" font-weight="900" font-family="Inter, Arial, sans-serif">Gradient Wash</text>
        <rect x="34" y="192" width="362" height="48" rx="14" fill="#ffffff" opacity="0.9" />
        <rect x="54" y="210" width="240" height="12" rx="6" fill="#2563eb" opacity="0.7" />
      </g>
    </g>
    <g transform="translate(1030 424)">
      
      <g transform="translate(0 0)">
        <rect width="270" height="154" rx="22" fill="url(#wash-commerce)" />
        <rect x="24" y="24" width="222" height="106" rx="18" fill="#ffffff" opacity="0.18" />
        <text x="34" y="72" fill="#ffffff" font-size="32" font-weight="900" font-family="Inter, Arial, sans-serif">Detail</text>
        <rect x="34" y="66" width="202" height="48" rx="14" fill="#ffffff" opacity="0.9" />
        <rect x="54" y="84" width="80" height="12" rx="6" fill="#2563eb" opacity="0.7" />
      </g>
    </g>
    <g transform="translate(690 502)">
      
  <g>
    <rect x="0" y="0" width="330" height="112" rx="18" fill="#ffffff" stroke="#d8e3fb" stroke-width="1.5" />
    <rect x="20" y="20" width="58" height="58" rx="14" fill="#2563eb" opacity="0.18" />
    <rect x="98" y="24" width="174" height="12" rx="6" fill="#1c4bb3" opacity="0.52" />
    <rect x="98" y="52" width="218" height="10" rx="5" fill="#1c4bb3" opacity="0.18" />
    <rect x="98" y="74" width="150" height="10" rx="5" fill="#1c4bb3" opacity="0.14" />
    <rect x="20" y="132" width="214" height="52" rx="16" fill="#2563eb" opacity="0.14" />
    <rect x="254" y="132" width="116" height="52" rx="16" fill="#ffffff" stroke="#d8e3fb" stroke-width="1.5" />
  </g>
    </g>
    <g transform="translate(1140 214)">
      <circle cx="0" cy="0" r="52" fill="#2563eb" opacity="0.1" />
      <circle cx="0" cy="0" r="22" fill="#2563eb" opacity="0.32" />
    </g>
  </g>
  
  <g>
    <rect x="100" y="678" width="1240" height="1.5" fill="#d8e3fb" />
    
    <rect x="112" y="702" width="138" height="34" rx="17" fill="#ffffff" stroke="#ebebeb" stroke-width="1" />
    <text x="181" y="724" text-anchor="middle" fill="#53606a" font-size="13" font-weight="850" font-family="Inter, Arial, sans-serif">Responsive</text>
    
    <rect x="266" y="702" width="116" height="34" rx="17" fill="#ffffff" stroke="#ebebeb" stroke-width="1" />
    <text x="324" y="724" text-anchor="middle" fill="#53606a" font-size="13" font-weight="850" font-family="Inter, Arial, sans-serif">Cards</text>
    
    <rect x="398" y="702" width="132" height="34" rx="17" fill="#ffffff" stroke="#ebebeb" stroke-width="1" />
    <text x="464" y="724" text-anchor="middle" fill="#53606a" font-size="13" font-weight="850" font-family="Inter, Arial, sans-serif">Sections</text>
    <text x="1010" y="726" fill="#1b47a9" font-size="18" font-weight="800" font-family="Inter, Arial, sans-serif">Drawn preset preview</text>
    <rect x="1236" y="705" width="74" height="24" rx="12" fill="#2563eb" opacity="0.16" />
  </g>
</svg>