<svg xmlns="http://www.w3.org/2000/svg" viewBox="0 0 800 600" role="img" aria-labelledby="title desc">
  <title id="title">Custom AI template preview</title>
  <desc id="desc">A clean illustrated website layout preview for the AI-generated custom template.</desc>
  <defs>
    <linearGradient id="bg" x1="0" y1="0" x2="1" y2="1">
      <stop offset="0" stop-color="#fff7f7"/>
      <stop offset="0.52" stop-color="#f8fafc"/>
      <stop offset="1" stop-color="#eef6ff"/>
    </linearGradient>
    <linearGradient id="hero" x1="0" y1="0" x2="1" y2="1">
      <stop offset="0" stop-color="#ff4048"/>
      <stop offset="1" stop-color="#2563eb"/>
    </linearGradient>
    <filter id="softShadow" x="-20%" y="-20%" width="140%" height="140%">
      <feDropShadow dx="0" dy="14" stdDeviation="18" flood-color="#0f172a" flood-opacity="0.13"/>
    </filter>
  </defs>

  <rect width="800" height="600" fill="url(#bg)"/>
  <g opacity="0.45">
    <path d="M70 70h660M70 170h660M70 270h660M70 370h660M70 470h660" stroke="#dbe4ef" stroke-width="2"/>
    <path d="M130 30v540M260 30v540M390 30v540M520 30v540M650 30v540" stroke="#e9eef5" stroke-width="2"/>
  </g>

  <g filter="url(#softShadow)">
    <rect x="94" y="78" width="612" height="444" rx="28" fill="#ffffff"/>
    <rect x="94" y="78" width="612" height="58" rx="28" fill="#111827"/>
    <rect x="94" y="108" width="612" height="28" fill="#111827"/>
  </g>

  <circle cx="130" cy="107" r="9" fill="#ff4048"/>
  <circle cx="157" cy="107" r="9" fill="#f59e0b"/>
  <circle cx="184" cy="107" r="9" fill="#22c55e"/>
  <rect x="238" y="94" width="412" height="26" rx="13" fill="#ffffff" opacity="0.92"/>
  <text x="258" y="112" fill="#94a3b8" font-family="Inter, Arial, sans-serif" font-size="13" font-weight="700">kswd.ca/builder/custom</text>

  <rect x="124" y="160" width="552" height="154" rx="22" fill="url(#hero)" opacity="0.95"/>
  <g fill="#ffffff">
    <rect x="154" y="194" width="170" height="15" rx="7.5" opacity="0.96"/>
    <rect x="154" y="222" width="250" height="12" rx="6" opacity="0.72"/>
    <rect x="154" y="246" width="214" height="12" rx="6" opacity="0.72"/>
    <rect x="154" y="276" width="104" height="26" rx="13" opacity="0.96"/>
  </g>
  <g transform="translate(470 179)">
    <rect x="0" y="0" width="144" height="100" rx="18" fill="#ffffff" opacity="0.22"/>
    <rect x="22" y="24" width="100" height="10" rx="5" fill="#ffffff" opacity="0.9"/>
    <rect x="22" y="46" width="70" height="10" rx="5" fill="#ffffff" opacity="0.65"/>
    <rect x="22" y="68" width="92" height="10" rx="5" fill="#ffffff" opacity="0.65"/>
  </g>

  <g transform="translate(124 346)">
    <rect x="0" y="0" width="160" height="120" rx="18" fill="#f8fafc" stroke="#dbe4ef" stroke-width="2"/>
    <rect x="24" y="26" width="96" height="12" rx="6" fill="#111827"/>
    <rect x="24" y="54" width="112" height="9" rx="4.5" fill="#94a3b8"/>
    <rect x="24" y="76" width="82" height="9" rx="4.5" fill="#cbd5e1"/>
  </g>
  <g transform="translate(320 346)">
    <rect x="0" y="0" width="160" height="120" rx="18" fill="#fff7ed" stroke="#fed7aa" stroke-width="2"/>
    <circle cx="42" cy="44" r="18" fill="#ff4048"/>
    <rect x="72" y="31" width="62" height="10" rx="5" fill="#111827"/>
    <rect x="72" y="53" width="48" height="9" rx="4.5" fill="#94a3b8"/>
    <rect x="28" y="83" width="104" height="10" rx="5" fill="#fed7aa"/>
  </g>
  <g transform="translate(516 346)">
    <rect x="0" y="0" width="160" height="120" rx="18" fill="#eff6ff" stroke="#bfdbfe" stroke-width="2"/>
    <path d="M34 80 68 42l28 26 20-18 20 30H34Z" fill="#2563eb" opacity="0.22"/>
    <rect x="24" y="26" width="92" height="10" rx="5" fill="#111827"/>
    <rect x="24" y="52" width="116" height="9" rx="4.5" fill="#94a3b8"/>
  </g>

  <text x="400" y="558" text-anchor="middle" fill="#334155" font-family="Inter, Arial, sans-serif" font-size="18" font-weight="800">Custom AI Website</text>
</svg>
