<?xml version="1.0" encoding="UTF-8"?>
<svg xmlns="http://www.w3.org/2000/svg" width="1440" height="810" viewBox="0 0 1440 810" role="img" aria-label="Playful template preview">
  <defs>
    <linearGradient id="bg-occasion" x1="0" y1="0" x2="1" y2="1">
      <stop offset="0" stop-color="#fff3f8" />
      <stop offset="0.52" stop-color="#fdf0f7" />
      <stop offset="1" stop-color="#facce2" />
    </linearGradient>
    <linearGradient id="wash-occasion" x1="0" y1="0" x2="1" y2="1">
      <stop offset="0" stop-color="#ec4899" stop-opacity="0.95" />
      <stop offset="0.55" stop-color="#f499c6" stop-opacity="0.92" />
      <stop offset="1" stop-color="#c53f84" stop-opacity="0.94" />
    </linearGradient>
    <filter id="shadow-occasion" x="-20%" y="-20%" width="140%" height="150%">
      <feDropShadow dx="0" dy="22" stdDeviation="22" flood-color="#aa346e" flood-opacity="0.2" />
    </filter>
    <filter id="lift-occasion" x="-20%" y="-20%" width="140%" height="140%">
      <feDropShadow dx="10" dy="14" stdDeviation="0" flood-color="#f1766b" flood-opacity="0.92" />
    </filter>
    <clipPath id="clip-main-occasion">
      <path d="M0 0 H430 V235 L394 280 H0 Z" />
    </clipPath>
    <clipPath id="clip-small-occasion">
      <path d="M0 0 H270 V122 L240 154 H0 Z" />
    </clipPath>
  </defs>

  <rect width="1440" height="810" fill="url(#bg-occasion)" />
  
  <g opacity="0.22">
    <circle cx="210" cy="156" r="68" fill="#ec4899" />
    <rect x="1160" y="106" width="116" height="116" rx="24" fill="#facc15" transform="rotate(8 1218 164)" />
    <rect x="104" y="612" width="126" height="38" rx="19" fill="#f59ac7" transform="rotate(-6 167 631)" />
  </g>
  <rect x="60" y="48" width="1320" height="694" rx="34" fill="#ffffff" opacity="0.74" />
  <rect x="60" y="48" width="1320" height="694" rx="34" fill="none" stroke="#f6add1" stroke-width="1.5" />

  
  <g>
    <rect x="100" y="78" width="1240" height="72" rx="20" fill="#ffffff" opacity="0.86" />
    <rect x="100" y="78" width="1240" height="72" rx="20" fill="none" stroke="#fcdeed" stroke-width="1.4" />
    <rect x="128" y="97" width="34" height="34" rx="8" fill="#ec4899" />
    <rect x="136" y="105" width="18" height="18" rx="4" fill="#ffffff" opacity="0.9" />
    <text x="178" y="121" fill="#351326" font-size="22" font-weight="800" font-family="Inter, Arial, sans-serif">Playful</text>
    
    <rect x="1000" y="99" width="96" height="30" rx="15" fill="#fcdeed" stroke="#e8ccda" stroke-width="1" />
    <text x="1048" y="119" text-anchor="middle" fill="#aa346e" font-size="13" font-weight="850" font-family="Inter, Arial, sans-serif">Style</text>
    
    <rect x="1110" y="99" width="94" height="30" rx="15" fill="#ffffff" stroke="#ebebeb" stroke-width="1" />
    <text x="1157" y="119" text-anchor="middle" fill="#53606a" font-size="13" font-weight="850" font-family="Inter, Arial, sans-serif">Blocks</text>
    <rect x="1218" y="94" width="92" height="40" rx="13" fill="#351326" />
    <text x="1244" y="120" fill="#ffffff" font-size="14" font-weight="800" font-family="Inter, Arial, sans-serif">Start</text>
  </g>
  
  <g>
    
    <rect x="112" y="190" width="154" height="34" rx="17" fill="#fcdeed" stroke="#e8ccda" stroke-width="1" />
    <text x="189" y="212" text-anchor="middle" fill="#aa346e" font-size="13" font-weight="850" font-family="Inter, Arial, sans-serif">Preset style</text>
    <text x="112" y="279" fill="#351326" font-size="78" font-weight="900" letter-spacing="0" font-family="Inter, Arial, sans-serif">Playful</text>
    <text x="116" y="326" fill="#aa346e" font-size="26" font-weight="750" letter-spacing="0" font-family="Inter, Arial, sans-serif">Chunky. Lifted. Celebratory.</text>
    <text x="116" y="380" fill="#475569" font-size="24" font-weight="600" font-family="Inter, Arial, sans-serif">Lively event cards, glow accents, and cheerful</text><text x="116" y="413" fill="#475569" font-size="24" font-weight="600" font-family="Inter, Arial, sans-serif">inquiry paths.</text>
    <rect x="116" y="440" width="148" height="50" rx="15" fill="#ec4899" />
    <text x="148" y="471" fill="#ffffff" font-size="16" font-weight="850" font-family="Inter, Arial, sans-serif">Preview</text>
    <rect x="282" y="440" width="156" height="50" rx="15" fill="#ffffff" stroke="#fcdeed" stroke-width="1.6" />
    <text x="316" y="471" fill="#351326" font-size="16" font-weight="800" font-family="Inter, Arial, sans-serif">Sections</text>
    <g transform="translate(116 550)">
      
    <g transform="translate(0 0)">
      <text x="0" y="0" fill="#351326" font-size="40" font-weight="900" font-family="Inter, Arial, sans-serif">16</text>
      <text x="0" y="31" fill="#765f6b" font-size="15" font-weight="800" font-family="Inter, Arial, sans-serif">blocks</text>
    </g>
      
    <g transform="translate(142 0)">
      <text x="0" y="0" fill="#351326" font-size="40" font-weight="900" font-family="Inter, Arial, sans-serif">4</text>
      <text x="0" y="31" fill="#765f6b" font-size="15" font-weight="800" font-family="Inter, Arial, sans-serif">flows</text>
    </g>
      
    <g transform="translate(284 0)">
      <text x="0" y="0" fill="#351326" font-size="40" font-weight="900" font-family="Inter, Arial, sans-serif">1</text>
      <text x="0" y="31" fill="#765f6b" font-size="15" font-weight="800" font-family="Inter, Arial, sans-serif">preset</text>
    </g>
    </g>
  </g>
  
  <g>
    <rect x="668" y="180" width="642" height="476" rx="30" fill="#fdedf5" opacity="0.82" />
    <rect x="692" y="205" width="594" height="424" rx="24" fill="#ffffff" opacity="0.72" />
    <g transform="translate(724 232)">
      
      <g transform="translate(0 0)" filter="url(#lift-occasion)">
        <rect width="430" height="280" rx="26" fill="#facce2" stroke="#351326" stroke-width="3" />
        <circle cx="366" cy="54" r="30" fill="#facc15" stroke="#351326" stroke-width="3" />
        <rect x="28" y="30" width="320" height="62" rx="20" fill="#ffffff" stroke="#351326" stroke-width="3" />
        <text x="48" y="70" fill="#351326" font-size="28" font-weight="950" font-family="Inter, Arial, sans-serif">Playful</text>
        <rect x="34" y="198" width="142" height="42" rx="17" fill="#ec4899" stroke="#351326" stroke-width="3" />
      </g>
    </g>
    <g transform="translate(1030 424)">
      
      <g transform="translate(0 0)" filter="url(#lift-occasion)">
        <rect width="270" height="154" rx="26" fill="#facce2" stroke="#351326" stroke-width="3" />
        <circle cx="206" cy="54" r="30" fill="#facc15" stroke="#351326" stroke-width="3" />
        <rect x="28" y="30" width="160" height="62" rx="20" fill="#ffffff" stroke="#351326" stroke-width="3" />
        <text x="48" y="70" fill="#351326" font-size="28" font-weight="950" font-family="Inter, Arial, sans-serif">Detail</text>
        <rect x="34" y="72" width="142" height="42" rx="17" fill="#ec4899" stroke="#351326" stroke-width="3" />
      </g>
    </g>
    <g transform="translate(690 502)">
      
  <g>
    <rect x="0" y="0" width="330" height="112" rx="18" fill="#ffffff" stroke="#fcdeed" stroke-width="1.5" />
    <rect x="20" y="20" width="58" height="58" rx="14" fill="#ec4899" opacity="0.18" />
    <rect x="98" y="24" width="174" height="12" rx="6" fill="#b33774" opacity="0.52" />
    <rect x="98" y="52" width="218" height="10" rx="5" fill="#b33774" opacity="0.18" />
    <rect x="98" y="74" width="150" height="10" rx="5" fill="#b33774" opacity="0.14" />
    <rect x="20" y="132" width="214" height="52" rx="16" fill="#ec4899" opacity="0.14" />
    <rect x="254" y="132" width="116" height="52" rx="16" fill="#ffffff" stroke="#fcdeed" stroke-width="1.5" />
  </g>
    </g>
    <g transform="translate(1140 214)">
      <circle cx="0" cy="0" r="52" fill="#ec4899" opacity="0.1" />
      <circle cx="0" cy="0" r="22" fill="#ec4899" opacity="0.32" />
    </g>
  </g>
  
  <g>
    <rect x="100" y="678" width="1240" height="1.5" fill="#fcdeed" />
    
    <rect x="112" y="702" width="138" height="34" rx="17" fill="#ffffff" stroke="#ebebeb" stroke-width="1" />
    <text x="181" y="724" text-anchor="middle" fill="#53606a" font-size="13" font-weight="850" font-family="Inter, Arial, sans-serif">Responsive</text>
    
    <rect x="266" y="702" width="116" height="34" rx="17" fill="#ffffff" stroke="#ebebeb" stroke-width="1" />
    <text x="324" y="724" text-anchor="middle" fill="#53606a" font-size="13" font-weight="850" font-family="Inter, Arial, sans-serif">Cards</text>
    
    <rect x="398" y="702" width="132" height="34" rx="17" fill="#ffffff" stroke="#ebebeb" stroke-width="1" />
    <text x="464" y="724" text-anchor="middle" fill="#53606a" font-size="13" font-weight="850" font-family="Inter, Arial, sans-serif">Sections</text>
    <text x="1010" y="726" fill="#aa346e" font-size="18" font-weight="800" font-family="Inter, Arial, sans-serif">Drawn preset preview</text>
    <rect x="1236" y="705" width="74" height="24" rx="12" fill="#ec4899" opacity="0.16" />
  </g>
</svg>