<?xml version="1.0" encoding="UTF-8"?>
<svg xmlns="http://www.w3.org/2000/svg" width="1440" height="810" viewBox="0 0 1440 810" role="img" aria-label="Ledger template preview">
  <defs>
    <linearGradient id="bg-proof" x1="0" y1="0" x2="1" y2="1">
      <stop offset="0" stop-color="#f5fbf6" />
      <stop offset="0.52" stop-color="#ecf5ef" />
      <stop offset="1" stop-color="#bddbc9" />
    </linearGradient>
    <linearGradient id="wash-proof" x1="0" y1="0" x2="1" y2="1">
      <stop offset="0" stop-color="#15803d" stop-opacity="0.95" />
      <stop offset="0.55" stop-color="#7cb892" stop-opacity="0.92" />
      <stop offset="1" stop-color="#146d39" stop-opacity="0.94" />
    </linearGradient>
    <filter id="shadow-proof" x="-20%" y="-20%" width="140%" height="150%">
      <feDropShadow dx="0" dy="22" stdDeviation="22" flood-color="#0f5c2c" flood-opacity="0.2" />
    </filter>
    <filter id="lift-proof" x="-20%" y="-20%" width="140%" height="140%">
      <feDropShadow dx="10" dy="14" stdDeviation="0" flood-color="#659b2f" flood-opacity="0.92" />
    </filter>
    <clipPath id="clip-main-proof">
      <path d="M0 0 H430 V235 L394 280 H0 Z" />
    </clipPath>
    <clipPath id="clip-small-proof">
      <path d="M0 0 H270 V122 L240 154 H0 Z" />
    </clipPath>
  </defs>

  <rect width="1440" height="810" fill="url(#bg-proof)" />
  
  <g opacity="0.24">
    <circle cx="1180" cy="140" r="132" fill="#b9d9c5" />
    <circle cx="160" cy="650" r="118" fill="#cce3d4" />
    <path d="M1030 704 C1120 610 1248 628 1346 520" fill="none" stroke="#b9d9c5" stroke-width="18" stroke-linecap="round" />
  </g>
  <rect x="60" y="48" width="1320" height="694" rx="34" fill="#ffffff" opacity="0.74" />
  <rect x="60" y="48" width="1320" height="694" rx="34" fill="none" stroke="#96c6a8" stroke-width="1.5" />

  
  <g>
    <rect x="100" y="78" width="1240" height="72" rx="20" fill="#ffffff" opacity="0.86" />
    <rect x="100" y="78" width="1240" height="72" rx="20" fill="none" stroke="#d5e8dc" stroke-width="1.4" />
    <rect x="128" y="97" width="34" height="34" rx="8" fill="#15803d" />
    <rect x="136" y="105" width="18" height="18" rx="4" fill="#ffffff" opacity="0.9" />
    <text x="178" y="121" fill="#17351f" font-size="22" font-weight="800" font-family="Inter, Arial, sans-serif">Ledger</text>
    
    <rect x="1000" y="99" width="96" height="30" rx="15" fill="#d5e8dc" stroke="#c4d5ca" stroke-width="1" />
    <text x="1048" y="119" text-anchor="middle" fill="#0f5c2c" font-size="13" font-weight="850" font-family="Inter, Arial, sans-serif">Style</text>
    
    <rect x="1110" y="99" width="94" height="30" rx="15" fill="#ffffff" stroke="#ebebeb" stroke-width="1" />
    <text x="1157" y="119" text-anchor="middle" fill="#53606a" font-size="13" font-weight="850" font-family="Inter, Arial, sans-serif">Blocks</text>
    <rect x="1218" y="94" width="92" height="40" rx="13" fill="#17351f" />
    <text x="1244" y="120" fill="#ffffff" font-size="14" font-weight="800" font-family="Inter, Arial, sans-serif">Start</text>
  </g>
  
  <g>
    
    <rect x="112" y="190" width="154" height="34" rx="17" fill="#d5e8dc" stroke="#c4d5ca" stroke-width="1" />
    <text x="189" y="212" text-anchor="middle" fill="#0f5c2c" font-size="13" font-weight="850" font-family="Inter, Arial, sans-serif">Preset style</text>
    <text x="112" y="279" fill="#17351f" font-size="78" font-weight="900" letter-spacing="0" font-family="Inter, Arial, sans-serif">Ledger</text>
    <text x="116" y="326" fill="#0f5c2c" font-size="26" font-weight="750" letter-spacing="0" font-family="Inter, Arial, sans-serif">Documented. Trust-heavy. Rail-led.</text>
    <text x="116" y="380" fill="#475569" font-size="24" font-weight="600" font-family="Inter, Arial, sans-serif">Document-like proof cards, testimonials, and</text><text x="116" y="413" fill="#475569" font-size="24" font-weight="600" font-family="Inter, Arial, sans-serif">intake flows.</text>
    <rect x="116" y="440" width="148" height="50" rx="15" fill="#15803d" />
    <text x="148" y="471" fill="#ffffff" font-size="16" font-weight="850" font-family="Inter, Arial, sans-serif">Preview</text>
    <rect x="282" y="440" width="156" height="50" rx="15" fill="#ffffff" stroke="#d5e8dc" stroke-width="1.6" />
    <text x="316" y="471" fill="#17351f" font-size="16" font-weight="800" font-family="Inter, Arial, sans-serif">Sections</text>
    <g transform="translate(116 550)">
      
    <g transform="translate(0 0)">
      <text x="0" y="0" fill="#17351f" font-size="40" font-weight="900" font-family="Inter, Arial, sans-serif">16</text>
      <text x="0" y="31" fill="#617667" font-size="15" font-weight="800" font-family="Inter, Arial, sans-serif">blocks</text>
    </g>
      
    <g transform="translate(142 0)">
      <text x="0" y="0" fill="#17351f" font-size="40" font-weight="900" font-family="Inter, Arial, sans-serif">4</text>
      <text x="0" y="31" fill="#617667" font-size="15" font-weight="800" font-family="Inter, Arial, sans-serif">flows</text>
    </g>
      
    <g transform="translate(284 0)">
      <text x="0" y="0" fill="#17351f" font-size="40" font-weight="900" font-family="Inter, Arial, sans-serif">1</text>
      <text x="0" y="31" fill="#617667" font-size="15" font-weight="800" font-family="Inter, Arial, sans-serif">preset</text>
    </g>
    </g>
  </g>
  
  <g>
    <rect x="668" y="180" width="642" height="476" rx="30" fill="#e8f2ec" opacity="0.82" />
    <rect x="692" y="205" width="594" height="424" rx="24" fill="#ffffff" opacity="0.72" />
    <g transform="translate(724 232)">
      
      <g transform="translate(0 0)">
        <rect width="430" height="280" rx="16" fill="#fffdf5" stroke="#daebe0" stroke-width="1.5" />
        <rect x="0" y="0" width="18" height="280" rx="8" fill="#15803d" />
        <rect x="38" y="26" width="360" height="42" rx="8" fill="#ecf5ef" />
        <text x="54" y="55" fill="#17351f" font-size="24" font-weight="850" font-family="Inter, Arial, sans-serif">Ledger</text>
        
      <g>
        <line x1="44" y1="98" x2="402" y2="98" stroke="#daebe0" stroke-width="1.5" />
        <circle cx="56" cy="116.75" r="5" fill="#15803d" opacity="0.72" />
        <rect x="78" y="110.75" width="221.96" height="12" rx="6" fill="#17351f" opacity="0.18" />
        <rect x="324" y="107.75" width="58" height="18" rx="9" fill="#daebe0" />
      </g>
      <g>
        <line x1="44" y1="135.5" x2="402" y2="135.5" stroke="#daebe0" stroke-width="1.5" />
        <circle cx="56" cy="154.25" r="5" fill="#15803d" opacity="0.72" />
        <rect x="78" y="148.25" width="204.05999999999997" height="12" rx="6" fill="#17351f" opacity="0.18" />
        <rect x="324" y="145.25" width="58" height="18" rx="9" fill="#daebe0" />
      </g>
      <g>
        <line x1="44" y1="173" x2="402" y2="173" stroke="#daebe0" stroke-width="1.5" />
        <circle cx="56" cy="191.75" r="5" fill="#15803d" opacity="0.72" />
        <rect x="78" y="185.75" width="186.16" height="12" rx="6" fill="#17351f" opacity="0.18" />
        <rect x="324" y="182.75" width="58" height="18" rx="9" fill="#daebe0" />
      </g>
      <g>
        <line x1="44" y1="210.5" x2="402" y2="210.5" stroke="#daebe0" stroke-width="1.5" />
        <circle cx="56" cy="229.25" r="5" fill="#15803d" opacity="0.72" />
        <rect x="78" y="223.25" width="168.26" height="12" rx="6" fill="#17351f" opacity="0.18" />
        <rect x="324" y="220.25" width="58" height="18" rx="9" fill="#daebe0" />
      </g>
      </g>
    </g>
    <g transform="translate(1030 424)">
      
      <g transform="translate(0 0)">
        <rect width="270" height="154" rx="16" fill="#fffdf5" stroke="#daebe0" stroke-width="1.5" />
        <rect x="0" y="0" width="18" height="154" rx="8" fill="#15803d" />
        <rect x="38" y="26" width="200" height="42" rx="8" fill="#ecf5ef" />
        <text x="54" y="55" fill="#17351f" font-size="24" font-weight="850" font-family="Inter, Arial, sans-serif">Detail</text>
        
      <g>
        <line x1="44" y1="98" x2="242" y2="98" stroke="#daebe0" stroke-width="1.5" />
        <circle cx="56" cy="101" r="5" fill="#15803d" opacity="0.72" />
        <rect x="78" y="95" width="122.76" height="12" rx="6" fill="#17351f" opacity="0.18" />
        <rect x="164" y="92" width="58" height="18" rx="9" fill="#daebe0" />
      </g>
      <g>
        <line x1="44" y1="104" x2="242" y2="104" stroke="#daebe0" stroke-width="1.5" />
        <circle cx="56" cy="107" r="5" fill="#15803d" opacity="0.72" />
        <rect x="78" y="101" width="112.85999999999999" height="12" rx="6" fill="#17351f" opacity="0.18" />
        <rect x="164" y="98" width="58" height="18" rx="9" fill="#daebe0" />
      </g>
      <g>
        <line x1="44" y1="110" x2="242" y2="110" stroke="#daebe0" stroke-width="1.5" />
        <circle cx="56" cy="113" r="5" fill="#15803d" opacity="0.72" />
        <rect x="78" y="107" width="102.96000000000001" height="12" rx="6" fill="#17351f" opacity="0.18" />
        <rect x="164" y="104" width="58" height="18" rx="9" fill="#daebe0" />
      </g>
      <g>
        <line x1="44" y1="116" x2="242" y2="116" stroke="#daebe0" stroke-width="1.5" />
        <circle cx="56" cy="119" r="5" fill="#15803d" opacity="0.72" />
        <rect x="78" y="113" width="93.05999999999999" height="12" rx="6" fill="#17351f" opacity="0.18" />
        <rect x="164" y="110" width="58" height="18" rx="9" fill="#daebe0" />
      </g>
      </g>
    </g>
    <g transform="translate(690 502)">
      
  <g>
    <rect x="0" y="0" width="330" height="112" rx="18" fill="#ffffff" stroke="#d5e8dc" stroke-width="1.5" />
    <rect x="20" y="20" width="58" height="58" rx="14" fill="#15803d" opacity="0.18" />
    <rect x="98" y="24" width="174" height="12" rx="6" fill="#10612e" opacity="0.52" />
    <rect x="98" y="52" width="218" height="10" rx="5" fill="#10612e" opacity="0.18" />
    <rect x="98" y="74" width="150" height="10" rx="5" fill="#10612e" opacity="0.14" />
    <rect x="20" y="132" width="214" height="52" rx="16" fill="#15803d" opacity="0.14" />
    <rect x="254" y="132" width="116" height="52" rx="16" fill="#ffffff" stroke="#d5e8dc" stroke-width="1.5" />
  </g>
    </g>
    <g transform="translate(1140 214)">
      <circle cx="0" cy="0" r="52" fill="#15803d" opacity="0.1" />
      <circle cx="0" cy="0" r="22" fill="#15803d" opacity="0.32" />
    </g>
  </g>
  
  <g>
    <rect x="100" y="678" width="1240" height="1.5" fill="#d5e8dc" />
    
    <rect x="112" y="702" width="138" height="34" rx="17" fill="#ffffff" stroke="#ebebeb" stroke-width="1" />
    <text x="181" y="724" text-anchor="middle" fill="#53606a" font-size="13" font-weight="850" font-family="Inter, Arial, sans-serif">Responsive</text>
    
    <rect x="266" y="702" width="116" height="34" rx="17" fill="#ffffff" stroke="#ebebeb" stroke-width="1" />
    <text x="324" y="724" text-anchor="middle" fill="#53606a" font-size="13" font-weight="850" font-family="Inter, Arial, sans-serif">Cards</text>
    
    <rect x="398" y="702" width="132" height="34" rx="17" fill="#ffffff" stroke="#ebebeb" stroke-width="1" />
    <text x="464" y="724" text-anchor="middle" fill="#53606a" font-size="13" font-weight="850" font-family="Inter, Arial, sans-serif">Sections</text>
    <text x="1010" y="726" fill="#0f5c2c" font-size="18" font-weight="800" font-family="Inter, Arial, sans-serif">Drawn preset preview</text>
    <rect x="1236" y="705" width="74" height="24" rx="12" fill="#15803d" opacity="0.16" />
  </g>
</svg>