<?xml version="1.0" encoding="UTF-8"?>
<svg xmlns="http://www.w3.org/2000/svg" width="1440" height="810" viewBox="0 0 1440 810" role="img" aria-label="Retro template preview">
  <defs>
    <linearGradient id="bg-retro" x1="0" y1="0" x2="1" y2="1">
      <stop offset="0" stop-color="#fff5fd" />
      <stop offset="0.52" stop-color="#fff1fc" />
      <stop offset="1" stop-color="#ffcef4" />
    </linearGradient>
    <linearGradient id="wash-retro" x1="0" y1="0" x2="1" y2="1">
      <stop offset="0" stop-color="#ff4fd8" stop-opacity="0.95" />
      <stop offset="0.55" stop-color="#ff9ce9" stop-opacity="0.92" />
      <stop offset="1" stop-color="#d445b8" stop-opacity="0.94" />
    </linearGradient>
    <filter id="shadow-retro" x="-20%" y="-20%" width="140%" height="150%">
      <feDropShadow dx="0" dy="22" stdDeviation="22" flood-color="#b8399c" flood-opacity="0.2" />
    </filter>
    <filter id="lift-retro" x="-20%" y="-20%" width="140%" height="140%">
      <feDropShadow dx="10" dy="14" stdDeviation="0" flood-color="#fd7b94" flood-opacity="0.92" />
    </filter>
    <clipPath id="clip-main-retro">
      <path d="M0 0 H430 V235 L394 280 H0 Z" />
    </clipPath>
    <clipPath id="clip-small-retro">
      <path d="M0 0 H270 V122 L240 154 H0 Z" />
    </clipPath>
  </defs>

  <rect width="1440" height="810" fill="url(#bg-retro)" />
  
  <g opacity="0.22">
    <circle cx="210" cy="156" r="68" fill="#ff4fd8" />
    <rect x="1160" y="106" width="116" height="116" rx="24" fill="#facc15" transform="rotate(8 1218 164)" />
    <rect x="104" y="612" width="126" height="38" rx="19" fill="#ff9eea" transform="rotate(-6 167 631)" />
  </g>
  <rect x="60" y="48" width="1320" height="694" rx="34" fill="#ffffff" opacity="0.74" />
  <rect x="60" y="48" width="1320" height="694" rx="34" fill="none" stroke="#ffb0ed" stroke-width="1.5" />

  
  <g>
    <rect x="100" y="78" width="1240" height="72" rx="20" fill="#ffffff" opacity="0.86" />
    <rect x="100" y="78" width="1240" height="72" rx="20" fill="none" stroke="#ffdff8" stroke-width="1.4" />
    <rect x="128" y="97" width="34" height="34" rx="8" fill="#ff4fd8" />
    <rect x="136" y="105" width="18" height="18" rx="4" fill="#ffffff" opacity="0.9" />
    <text x="178" y="121" fill="#26112a" font-size="22" font-weight="800" font-family="Inter, Arial, sans-serif">Retro</text>
    
    <rect x="1000" y="99" width="96" height="30" rx="15" fill="#ffdff8" stroke="#ebcde4" stroke-width="1" />
    <text x="1048" y="119" text-anchor="middle" fill="#b8399c" font-size="13" font-weight="850" font-family="Inter, Arial, sans-serif">Style</text>
    
    <rect x="1110" y="99" width="94" height="30" rx="15" fill="#ffffff" stroke="#ebebeb" stroke-width="1" />
    <text x="1157" y="119" text-anchor="middle" fill="#53606a" font-size="13" font-weight="850" font-family="Inter, Arial, sans-serif">Blocks</text>
    <rect x="1218" y="94" width="92" height="40" rx="13" fill="#26112a" />
    <text x="1244" y="120" fill="#ffffff" font-size="14" font-weight="800" font-family="Inter, Arial, sans-serif">Start</text>
  </g>
  
  <g>
    
    <rect x="112" y="190" width="154" height="34" rx="17" fill="#ffdff8" stroke="#ebcde4" stroke-width="1" />
    <text x="189" y="212" text-anchor="middle" fill="#b8399c" font-size="13" font-weight="850" font-family="Inter, Arial, sans-serif">Preset style</text>
    <text x="112" y="279" fill="#26112a" font-size="78" font-weight="900" letter-spacing="0" font-family="Inter, Arial, sans-serif">Retro</text>
    <text x="116" y="326" fill="#b8399c" font-size="26" font-weight="750" letter-spacing="0" font-family="Inter, Arial, sans-serif">Throwback. Punchy. Shadowed.</text>
    <text x="116" y="380" fill="#475569" font-size="24" font-weight="600" font-family="Inter, Arial, sans-serif">Bold borders, hard color shadows, and loud calls</text><text x="116" y="413" fill="#475569" font-size="24" font-weight="600" font-family="Inter, Arial, sans-serif">to action.</text>
    <rect x="116" y="440" width="148" height="50" rx="15" fill="#ff4fd8" />
    <text x="148" y="471" fill="#ffffff" font-size="16" font-weight="850" font-family="Inter, Arial, sans-serif">Preview</text>
    <rect x="282" y="440" width="156" height="50" rx="15" fill="#ffffff" stroke="#ffdff8" stroke-width="1.6" />
    <text x="316" y="471" fill="#26112a" font-size="16" font-weight="800" font-family="Inter, Arial, sans-serif">Sections</text>
    <g transform="translate(116 550)">
      
    <g transform="translate(0 0)">
      <text x="0" y="0" fill="#26112a" font-size="40" font-weight="900" font-family="Inter, Arial, sans-serif">16</text>
      <text x="0" y="31" fill="#6b5d6e" font-size="15" font-weight="800" font-family="Inter, Arial, sans-serif">blocks</text>
    </g>
      
    <g transform="translate(142 0)">
      <text x="0" y="0" fill="#26112a" font-size="40" font-weight="900" font-family="Inter, Arial, sans-serif">4</text>
      <text x="0" y="31" fill="#6b5d6e" font-size="15" font-weight="800" font-family="Inter, Arial, sans-serif">flows</text>
    </g>
      
    <g transform="translate(284 0)">
      <text x="0" y="0" fill="#26112a" font-size="40" font-weight="900" font-family="Inter, Arial, sans-serif">1</text>
      <text x="0" y="31" fill="#6b5d6e" font-size="15" font-weight="800" font-family="Inter, Arial, sans-serif">preset</text>
    </g>
    </g>
  </g>
  
  <g>
    <rect x="668" y="180" width="642" height="476" rx="30" fill="#ffedfb" opacity="0.82" />
    <rect x="692" y="205" width="594" height="424" rx="24" fill="#ffffff" opacity="0.72" />
    <g transform="translate(724 232)">
      
      <g transform="translate(0 0)" filter="url(#lift-retro)">
        <rect width="430" height="280" rx="8" fill="#fff8bf" stroke="#26112a" stroke-width="4" />
        <rect x="24" y="24" width="382" height="58" rx="0" fill="#ff4fd8" stroke="#26112a" stroke-width="3" />
        <text x="38" y="63" fill="#ffffff" font-size="28" font-weight="950" font-family="Inter, Arial, sans-serif">Retro</text>
        <rect x="30" y="116" width="360" height="10" rx="5" fill="#26112a" opacity="0.34" /><rect x="30" y="140" width="304" height="10" rx="5" fill="#26112a" opacity="0.34" /><rect x="30" y="164" width="312" height="10" rx="5" fill="#26112a" opacity="0.34" /><rect x="30" y="188" width="256" height="10" rx="5" fill="#26112a" opacity="0.34" />
        <rect x="30" y="210" width="132" height="38" rx="0" fill="#111111" />
        <text x="50" y="235" fill="#ffffff" font-size="14" font-weight="900" font-family="Inter, Arial, sans-serif">RETRO</text>
      </g>
    </g>
    <g transform="translate(1030 424)">
      
      <g transform="translate(0 0)" filter="url(#lift-retro)">
        <rect width="270" height="154" rx="8" fill="#fff8bf" stroke="#26112a" stroke-width="4" />
        <rect x="24" y="24" width="222" height="58" rx="0" fill="#ff4fd8" stroke="#26112a" stroke-width="3" />
        <text x="38" y="63" fill="#ffffff" font-size="28" font-weight="950" font-family="Inter, Arial, sans-serif">Detail</text>
        <rect x="30" y="116" width="200" height="10" rx="5" fill="#26112a" opacity="0.34" /><rect x="30" y="140" width="144" height="10" rx="5" fill="#26112a" opacity="0.34" /><rect x="30" y="164" width="152" height="10" rx="5" fill="#26112a" opacity="0.34" /><rect x="30" y="188" width="96" height="10" rx="5" fill="#26112a" opacity="0.34" />
        <rect x="30" y="84" width="132" height="38" rx="0" fill="#111111" />
        <text x="50" y="109" fill="#ffffff" font-size="14" font-weight="900" font-family="Inter, Arial, sans-serif">RETRO</text>
      </g>
    </g>
    <g transform="translate(690 502)">
      
  <g>
    <rect x="0" y="0" width="330" height="112" rx="18" fill="#ffffff" stroke="#ffdff8" stroke-width="1.5" />
    <rect x="20" y="20" width="58" height="58" rx="14" fill="#ff4fd8" opacity="0.18" />
    <rect x="98" y="24" width="174" height="12" rx="6" fill="#c23ca4" opacity="0.52" />
    <rect x="98" y="52" width="218" height="10" rx="5" fill="#c23ca4" opacity="0.18" />
    <rect x="98" y="74" width="150" height="10" rx="5" fill="#c23ca4" opacity="0.14" />
    <rect x="20" y="132" width="214" height="52" rx="16" fill="#ff4fd8" opacity="0.14" />
    <rect x="254" y="132" width="116" height="52" rx="16" fill="#ffffff" stroke="#ffdff8" stroke-width="1.5" />
  </g>
    </g>
    <g transform="translate(1140 214)">
      <circle cx="0" cy="0" r="52" fill="#ff4fd8" opacity="0.1" />
      <circle cx="0" cy="0" r="22" fill="#ff4fd8" opacity="0.32" />
    </g>
  </g>
  
  <g>
    <rect x="100" y="678" width="1240" height="1.5" fill="#ffdff8" />
    
    <rect x="112" y="702" width="138" height="34" rx="17" fill="#ffffff" stroke="#ebebeb" stroke-width="1" />
    <text x="181" y="724" text-anchor="middle" fill="#53606a" font-size="13" font-weight="850" font-family="Inter, Arial, sans-serif">Responsive</text>
    
    <rect x="266" y="702" width="116" height="34" rx="17" fill="#ffffff" stroke="#ebebeb" stroke-width="1" />
    <text x="324" y="724" text-anchor="middle" fill="#53606a" font-size="13" font-weight="850" font-family="Inter, Arial, sans-serif">Cards</text>
    
    <rect x="398" y="702" width="132" height="34" rx="17" fill="#ffffff" stroke="#ebebeb" stroke-width="1" />
    <text x="464" y="724" text-anchor="middle" fill="#53606a" font-size="13" font-weight="850" font-family="Inter, Arial, sans-serif">Sections</text>
    <text x="1010" y="726" fill="#b8399c" font-size="18" font-weight="800" font-family="Inter, Arial, sans-serif">Drawn preset preview</text>
    <rect x="1236" y="705" width="74" height="24" rx="12" fill="#ff4fd8" opacity="0.16" />
  </g>
</svg>